<svg xmlns="http://www.w3.org/2000/svg" width="512" height="512" viewBox="0 0 67.853 67.853"><path d="M61.652 40.124c0 15.292-12.44 27.729-27.726 27.729-15.29 0-27.726-12.437-27.726-27.729 0-13.505 9.71-24.769 22.518-27.216V9.794c-2.519-.219-4.494-2.305-4.494-4.875C24.224 2.2 26.424 0 29.141 0h10.691a4.92 4.92 0 0 1 4.918 4.919c0 2.569-1.978 4.655-4.491 4.875v3.366a27.693 27.693 0 0 1 9.272 4.069l4.261-4.261 3.431 13.147-13.148-3.427 2.981-2.982a24.313 24.313 0 0 0-13.134-3.882c-13.4 0-24.305 10.901-24.305 24.301 0 13.403 10.905 24.308 24.305 24.308 13.397 0 24.305-10.904 24.305-24.308h3.425v-.001zm-34.626.258c-2.333 1.64-3.932 3.059-4.77 4.259-.848 1.193-1.271 2.628-1.271 4.302v.005h12.49v-3.166h-8.019l.011-.027c.608-.844 1.731-1.793 3.381-2.836 1.781-1.14 2.996-2.164 3.648-3.072.646-.917.972-2.068.972-3.456 0-1.693-.57-3.075-1.703-4.143-1.154-1.073-2.625-1.608-4.429-1.608-1.935 0-3.455.582-4.553 1.745-1.101 1.166-1.618 2.736-1.565 4.728h3.531c-.032-1.07.183-1.91.639-2.529.462-.619 1.104-.928 1.924-.928.764 0 1.393.249 1.854.746.472.491.706 1.141.706 1.952 0 .748-.218 1.421-.637 2.029-.422.6-1.157 1.271-2.209 1.999zm14.768 8.567v-4.035h-7.249v-3.112l6.764-11.171h4.015v11.42h2.067v2.862h-2.067v4.035h-3.53zm0-6.895v-7.629l-4.444 7.378-.146.251h4.59zm-6.749-23.419h-1.708v3.431h1.708v-3.431zm0 38.88h-1.708v3.431h1.708v-3.431zm20.298-16.87v-1.709h-3.431v1.709h3.431zm-38.877 0v-1.709h-3.431v1.709h3.431z" fill="#08446d"/></svg>