<svg xmlns="http://www.w3.org/2000/svg" viewBox="0 0 496.158 496.158"><path d="M248.082.003C111.07.003 0 111.061 0 248.085c0 137 111.07 248.07 248.082 248.07 137.006 0 248.076-111.07 248.076-248.07C496.158 111.061 385.088.003 248.082.003z" fill="#56b48c"/><path d="M323.591 147.177c-4.2-2.93-10.986-4.395-20.361-4.395h-97.559c-7.716 0-13.722.978-18.018 2.93-4.298 1.955-6.445 6.299-6.445 13.037 0 6.349 2.025 11.012 6.079 13.989 4.051 2.98 10.181 4.468 18.384 4.468h78.369c-12.305 15.626-22.925 31.325-31.86 47.095-8.936 15.772-16.383 31.153-22.339 46.143-5.958 14.992-10.254 27.857-12.891 38.599-2.637 10.744-3.955 19.24-3.955 25.488 0 8.107 1.806 14.234 5.42 18.384 3.612 4.149 8.397 6.226 14.355 6.226 6.249 0 11.254-1.93 15.015-5.786 3.758-3.856 6.665-10.767 8.716-20.728.879-4.296 1.904-10.497 3.076-18.604 1.172-8.104 2.245-14.696 3.223-19.775.976-5.077 2.637-11.474 4.98-19.189 5.566-17.479 11.693-32.274 18.384-44.385 6.688-12.108 13.184-22.24 19.482-30.396 6.299-8.153 11.913-15.601 16.846-22.339 4.93-6.738 7.397-12.158 7.397-16.26.001-6.738-2.1-11.572-6.298-14.502z" fill="#fff"/></svg>