<svg xmlns="http://www.w3.org/2000/svg" viewBox="0 0 501.6 501.6"><path d="M249.6 100.8c24.8 0 44.8-25.6 44.8-57.6S274.4 0 249.6 0s-44.8 12-44.8 43.2 20 57.6 44.8 57.6z" fill="#08446d"/><path d="M249.6 100.8c24.8 0 44.8-25.6 44.8-57.6S274.4 0 249.6 0" fill="#00233f"/><path d="M271.2 112h-41.6c-31.2 0-56 24.8-56.8 56l-.8 81.6c0 19.2 9.6 36 24 46.4 0 1.6-.8 3.2-.8 4.8l-.8 176c0 12.8 10.4 24 23.2 24s23.2-10.4 24-23.2l.8-119.2h12.8l-.8 119.2c0 12.8 10.4 23.2 23.2 24 12.8 0 24-10.4 24-23.2l.8-176c0-1.6 0-3.2-.8-4.8 14.4-10.4 24-26.4 24-45.6l.8-81.6c1.6-32.8-24-58.4-55.2-58.4z" fill="#08446d"/><path d="M242.4 476l.8-119.2H256l-.8 119.2c0 12.8 10.4 24 23.2 24 12.8 0 24-10.4 24-23.2l.8-176c0-1.6 0-3.2-.8-4.8 14.4-10.4 24-26.4 24-45.6l.8-81.6c0-31.2-24.8-56.8-56-56.8h-41.6" fill="#00233f"/><path d="M412.8 120c21.6 0 39.2-22.4 39.2-50.4S434.4 32 412.8 32s-39.2 10.4-39.2 37.6c0 28 17.6 50.4 39.2 50.4z" fill="#08446d"/><path d="M412.8 120c21.6 0 39.2-22.4 39.2-50.4S434.4 32 412.8 32" fill="#00233f"/><path d="M431.2 129.6h-36c-27.2 0-48.8 21.6-48.8 48.8v70.4c0 16.8 8 31.2 20.8 40 0 1.6-.8 2.4-.8 4l-.8 152.8c0 11.2 8.8 20.8 20 20.8s20.8-8.8 20.8-20l.8-104h11.2l-.8 104c0 11.2 8.8 20.8 20 20.8s20.8-8.8 20.8-20l.8-152.8v-4c12.8-8.8 20.8-23.2 20.8-40l.8-71.2c-.8-27.2-22.4-49.6-49.6-49.6z" fill="#08446d"/><path d="M406.4 446.4l.8-104h11.2l-.8 104c0 11.2 8.8 20.8 20 20.8s20.8-8.8 20.8-20l.8-152.8v-4c12.8-8.8 20.8-23.2 20.8-40l.8-71.2c0-27.2-21.6-48.8-48.8-48.8h-36" fill="#00233f"/><path d="M87.2 120c21.6 0 39.2-22.4 39.2-50.4S108.8 32 87.2 32 48 42.4 48 69.6c0 28 17.6 50.4 39.2 50.4z" fill="#08446d"/><path d="M87.2 120c21.6 0 39.2-22.4 39.2-50.4S108.8 32 87.2 32" fill="#00233f"/><path d="M106.4 129.6h-36c-27.2 0-48.8 21.6-48.8 48.8l-.8 71.2c0 16.8 8 31.2 20.8 40 0 1.6-.8 2.4-.8 4L40 446.4c0 11.2 8.8 20.8 20 20.8s20.8-8.8 20.8-20l.8-104h11.2l-.8 104c0 11.2 8.8 20.8 20 20.8s20.8-8.8 20.8-20l.8-152.8v-4c12.8-8.8 20.8-23.2 20.8-40l.8-71.2c0-28-22.4-50.4-48.8-50.4z" fill="#08446d"/><path d="M80.8 446.4l.8-104h11.2l-.8 104c0 11.2 8.8 20.8 20 20.8s20.8-8.8 20.8-20l.8-152.8v-4c12.8-8.8 20.8-24 20.8-40V180c0-27.2-21.6-48.8-48.8-48.8h-36" fill="#00233f"/></svg>