<svg xmlns="http://www.w3.org/2000/svg" viewBox="0 0 305.425 305.425"><path d="M38.046 166.809H33.78c-.578-4.807-.888-9.553-.888-14.096 0-64.773 52.697-117.471 117.471-117.471 33.578 0 63.89 14.186 85.321 36.848 22.662 21.431 36.848 51.744 36.848 85.321 0 4.544-.31 9.29-.888 14.097h15.915c.968-1.626 2.1-3.176 3.237-4.699h-7.936c1.118-1.88 2.448-3.665 3.768-5.413 2.307-3.073 4.699-6.245 4.699-8.683 0-2.439-2.392-5.61-4.704-8.683-2.744-3.642-5.582-7.415-6.296-11.916-.724-4.633.836-9.172 2.349-13.561 1.226-3.557 2.49-7.236 1.786-9.412-.056-.179-.221-.357-.305-.531-.686-.498-1.391-.996-2.096-1.49-3.092-2.161-6.207-4.426-8.401-7.424-2.42-1.889-4.638-3.985-6.033-6.715-2.114-4.144-2.039-8.923-1.964-13.547.047-2.655.061-5.328-.385-7.368-1.504-.611-3.223-1.151-4.929-1.673-4.408-1.344-8.97-2.739-12.24-6.01a15.788 15.788 0 0 1-2.082-2.613 15.626 15.626 0 0 1-2.617-2.086c-3.275-3.275-4.666-7.833-6.01-12.245-.522-1.71-1.057-3.43-1.673-4.934-2.039-.451-4.718-.428-7.372-.39-4.6.085-9.402.15-13.547-1.959-2.73-1.396-4.821-3.609-6.71-6.029-2.998-2.194-5.267-5.319-7.429-8.411-.493-.705-.991-1.41-1.494-2.096-.174-.085-.352-.249-.526-.305-2.185-.714-5.859.559-9.421 1.786-4.389 1.513-8.932 3.064-13.561 2.349-4.506-.705-8.275-3.548-11.921-6.296-3.073-2.317-6.245-4.708-8.683-4.708s-5.61 2.392-8.679 4.704c-3.646 2.749-7.415 5.587-11.921 6.296-4.633.724-9.172-.836-13.561-2.349-3.557-1.222-7.241-2.5-9.412-1.786-2.27.738-4.534 3.971-6.719 7.1-2.631 3.759-5.347 7.65-9.445 9.741-4.144 2.119-8.918 2.039-13.547 1.959-3.778-.07-7.697-.127-9.581 1.245-1.903 1.386-3.05 5.141-4.158 8.777-1.344 4.408-2.739 8.97-6.01 12.24-3.275 3.275-7.833 4.666-12.245 6.015-3.632 1.109-7.391 2.255-8.777 4.158-1.372 1.884-1.306 5.794-1.245 9.581.075 4.619.155 9.398-1.959 13.547-2.091 4.097-5.977 6.813-9.741 9.44-3.129 2.19-6.367 4.45-7.105 6.719-.71 2.18.559 5.859 1.786 9.416 1.513 4.389 3.073 8.928 2.349 13.561-.705 4.501-3.548 8.275-6.296 11.921-2.307 3.068-4.699 6.24-4.699 8.679s2.392 5.61 4.704 8.679c1.32 1.753 2.655 3.538 3.768 5.418h15.91c-.189-1.578-.302-3.138-.434-4.698z" fill="#f8cf26"/><path d="M208.088 34.123c.648.475 1.283.959 2.011 1.33 4.144 2.114 8.942 2.049 13.547 1.959 3.787-.056 7.701-.127 9.586 1.245 1.01.733 1.795 2.152 2.486 3.844.611 1.504 1.147 3.223 1.673 4.934 1.344 4.408 2.735 8.97 6.01 12.245a15.426 15.426 0 0 0 2.617 2.086c2.88 1.861 6.296 2.909 9.628 3.924 3.628 1.109 7.387 2.255 8.773 4.158.409.564.663 1.344.855 2.213.451 2.035.432 4.713.385 7.368-.075 4.624-.15 9.402 1.964 13.547 1.396 2.73 3.613 4.826 6.033 6.715a86.71 86.71 0 0 0 3.703 2.725c2.885 2.016 5.77 4.097 6.794 6.188.089.179.249.352.305.531.705 2.176-.559 5.855-1.786 9.412-1.513 4.389-3.073 8.928-2.349 13.561.71 4.501 3.552 8.275 6.296 11.916 2.317 3.078 4.708 6.249 4.708 8.688 0 2.439-2.392 5.61-4.704 8.683-1.32 1.748-2.65 3.534-3.768 5.413h8.472c.93 0 1.814.179 2.66.428.047-.061.094-.127.141-.193 3.092-4.097 6.597-8.749 6.597-14.331s-3.505-10.234-6.592-14.336c-2.053-2.721-4.177-5.535-4.516-7.72-.367-2.326.808-5.742 1.945-9.041 1.654-4.783 3.519-10.206 1.842-15.375-1.706-5.267-6.461-8.589-10.657-11.522-2.819-1.969-5.728-4.003-6.757-6.015-1.053-2.058-.991-5.648-.935-9.116.085-5.084.179-10.84-3.04-15.267-3.233-4.445-8.759-6.132-13.631-7.617-3.303-1.006-6.724-2.053-8.336-3.665-1.616-1.616-2.66-5.037-3.665-8.34-1.485-4.873-3.172-10.399-7.622-13.631-4.422-3.219-10.182-3.129-15.262-3.04-3.468.066-7.062.117-9.116-.935-2.011-1.024-4.046-3.938-6.014-6.757-2.927-4.196-6.249-8.947-11.517-10.657-5.173-1.677-10.605.188-15.393 1.833-3.299 1.137-6.724 2.307-9.041 1.95-2.185-.343-5-2.467-7.725-4.516-4.097-3.092-8.749-6.597-14.331-6.597s-10.234 3.505-14.336 6.597c-2.721 2.053-5.535 4.173-7.72 4.516-2.317.371-5.737-.813-9.041-1.95-4.788-1.649-10.211-3.515-15.375-1.842-5.267 1.71-8.589 6.461-11.522 10.657-1.969 2.815-4.003 5.728-6.015 6.752-2.058 1.053-5.653.987-9.116.935-5.084-.099-10.84-.183-15.267 3.04-4.445 3.233-6.132 8.759-7.617 13.631-1.006 3.308-2.053 6.724-3.665 8.34-1.616 1.616-5.037 2.66-8.345 3.67-4.873 1.485-10.394 3.172-13.631 7.617-3.219 4.422-3.125 10.182-3.04 15.267.056 3.472.113 7.058-.935 9.12-1.024 2.006-3.938 4.041-6.752 6.01-4.196 2.932-8.947 6.254-10.662 11.522-1.677 5.173.193 10.596 1.842 15.384 1.137 3.303 2.317 6.715 1.95 9.041-.343 2.185-2.462 5-4.516 7.72C3.505 142.478 0 147.13 0 152.712s3.505 10.234 6.597 14.336c.047.061.094.127.141.188.85-.249 1.729-.428 2.66-.428h8.472c-1.118-1.88-2.448-3.665-3.768-5.418-2.312-3.068-4.704-6.24-4.704-8.679s2.392-5.61 4.704-8.679c2.749-3.646 5.587-7.415 6.296-11.921.728-4.633-.836-9.172-2.349-13.561-1.226-3.557-2.495-7.241-1.786-9.416.738-2.27 3.975-4.53 7.105-6.719 3.759-2.627 7.65-5.343 9.741-9.44 2.114-4.144 2.039-8.923 1.959-13.547-.061-3.787-.122-7.697 1.245-9.581 1.386-1.903 5.141-3.05 8.777-4.158 4.408-1.349 8.97-2.739 12.245-6.015 3.275-3.275 4.666-7.833 6.01-12.24 1.109-3.632 2.251-7.391 4.158-8.777 1.884-1.372 5.798-1.311 9.581-1.245 4.624.075 9.398.155 13.547-1.959 4.097-2.091 6.813-5.977 9.445-9.741 2.185-3.129 4.45-6.362 6.719-7.1 2.171-.714 5.855.564 9.412 1.786 4.393 1.513 8.928 3.073 13.561 2.349 4.501-.705 8.275-3.548 11.921-6.296 3.064-2.312 6.235-4.704 8.674-4.704s5.61 2.392 8.679 4.704c3.646 2.749 7.415 5.587 11.921 6.296 4.624.714 9.172-.836 13.561-2.349 3.562-1.226 7.236-2.5 9.421-1.786 1.757.569 3.51 2.645 5.225 5.004.498.686.996 1.391 1.494 2.096 2.156 3.092 4.426 6.217 7.424 8.411z"/><path d="M62.025 250.443c3.275 3.27 4.666 7.833 6.015 12.24.522 1.71 1.057 3.425 1.668 4.929 2.039.446 4.718.428 7.372.395 4.614-.08 9.398-.155 13.542 1.959 2.73 1.396 4.826 3.609 6.71 6.029 2.998 2.194 5.267 5.314 7.429 8.411.493.705.991 1.414 1.49 2.1.179.085.352.249.531.305 2.185.714 5.859-.559 9.416-1.786 4.393-1.508 8.942-3.045 13.561-2.349 4.501.71 8.275 3.552 11.916 6.296 3.078 2.312 6.249 4.704 8.688 4.704s5.61-2.392 8.683-4.704c3.642-2.744 7.41-5.582 11.916-6.296 4.624-.695 9.172.841 13.561 2.349 3.562 1.231 7.236 2.5 9.416 1.786 2.27-.738 4.534-3.975 6.724-7.105 2.627-3.759 5.343-7.645 9.435-9.736 4.154-2.115 8.923-2.039 13.551-1.964 3.759.061 7.697.122 9.576-1.245 1.903-1.386 3.05-5.141 4.158-8.773 1.231-4.022 2.566-8.12 5.267-11.301h-18.72l2.871 3.717c-20.736 16.014-45.541 24.476-71.742 24.476s-51.001-8.463-71.732-24.476l.681-.879c-1.344-.926-2.683-1.851-3.994-2.838H58.082c.465.55.959 1.085 1.349 1.687.921.603 1.8 1.275 2.594 2.069z" fill="#f8cf26"/><path d="M242.643 246.689c-2.697 3.181-4.036 7.278-5.267 11.301-1.104 3.632-2.251 7.387-4.158 8.773-1.88 1.367-5.817 1.302-9.576 1.245-4.624-.075-9.398-.15-13.551 1.964-4.093 2.091-6.809 5.977-9.435 9.736-2.19 3.129-4.45 6.362-6.724 7.105-2.18.714-5.855-.554-9.416-1.786-4.389-1.508-8.932-3.045-13.561-2.349-4.506.71-8.275 3.552-11.916 6.296-3.064 2.312-6.235 4.704-8.674 4.704s-5.61-2.392-8.683-4.704c-3.642-2.744-7.415-5.582-11.916-6.296-4.619-.695-9.172.841-13.561 2.349-3.557 1.226-7.232 2.5-9.416 1.786-.179-.056-.352-.221-.531-.305-2.091-1.024-4.173-3.914-6.188-6.799a90.936 90.936 0 0 0-2.73-3.712c-1.889-2.42-3.98-4.638-6.71-6.029-4.144-2.115-8.928-2.039-13.542-1.959-2.655.033-5.338.056-7.372-.395-.869-.193-1.649-.442-2.213-.855-1.903-1.386-3.05-5.141-4.158-8.773-1.015-3.322-2.058-6.729-3.914-9.609-.39-.601-.879-1.137-1.349-1.687H36.637c1.884.799 3.825 1.457 5.7 2.03 3.308 1.01 6.729 2.053 8.345 3.67 1.616 1.616 2.66 5.032 3.67 8.34 1.485 4.873 3.172 10.394 7.617 13.627 4.422 3.228 10.182 3.12 15.271 3.04 3.463-.038 7.058-.113 9.116.935 2.006 1.024 4.041 3.938 6.01 6.757 2.932 4.196 6.254 8.947 11.522 10.662 5.164 1.663 10.591-.188 15.379-1.842 3.303-1.132 6.724-2.345 9.041-1.945 2.185.338 5 2.462 7.72 4.516 4.102 3.092 8.754 6.597 14.336 6.597s10.234-3.505 14.336-6.592c2.721-2.053 5.54-4.177 7.725-4.516 2.293-.404 5.737.808 9.041 1.945 4.793 1.654 10.22 3.524 15.375 1.842 5.267-1.706 8.589-6.466 11.522-10.662 1.969-2.815 4.008-5.728 6.01-6.752 2.058-1.057 5.639-1.001 9.116-.935 5.051.08 10.836.179 15.267-3.04 4.44-3.233 6.127-8.754 7.612-13.627 1.01-3.303 2.053-6.729 3.67-8.34 1.616-1.616 5.032-2.66 8.336-3.665 1.88-.573 3.83-1.236 5.723-2.039h-21.45v-.007h-.004z"/><path d="M262.655 166.809h-.428l-4.661-.583c.578-4.624.869-9.172.869-13.514 0-28.602-11.188-54.629-29.396-73.978-19.35-18.208-45.377-29.396-73.978-29.396-59.591 0-108.073 48.483-108.073 108.073 0 4.342.291 8.89.874 13.514l-4.666.583h223.726l-4.661-.583c.174-1.386.272-2.749.394-4.116zm-74.702-21.145c0 9.069-7.377 16.446-16.446 16.446-5.733 0-10.779-2.96-13.721-7.424-4.464-2.941-7.424-7.988-7.424-13.721v4.699c0 9.069-7.377 16.446-16.446 16.446-5.733 0-10.779-2.96-13.721-7.424-4.464-2.941-7.424-7.988-7.424-13.721v21.145h-9.398v-4.699h-4.699v-46.989h-4.699v-9.398h9.398a4.7 4.7 0 0 1 4.699 4.699 4.7 4.7 0 0 1 4.699 4.699v7.048c0-9.069 7.377-16.446 16.446-16.446 5.733 0 10.779 2.96 13.721 7.424 4.464 2.946 7.424 7.988 7.424 13.721v-4.699c0-9.069 7.377-16.446 16.446-16.446 5.733 0 10.779 2.96 13.721 7.424 4.464 2.946 7.424 7.988 7.424 13.721v23.495zm46.989 7.048h-9.398v-4.699h-4.699v-8.289l-9.891 19.787-8.406-4.205.94-1.88-5.639-2.819 8.345-16.69h-8.843v-4.699h-4.699v-9.398h9.398v4.699h4.699v8.289l9.891-19.787 8.406 4.205-.94 1.88 5.639 2.819-8.345 16.69h8.843v4.699h4.699v9.398z" fill="#f78b28"/><path d="M126.869 122.17v23.494c0 .705.136 1.377.329 2.021.644.193 1.316.329 2.02.329a7.056 7.056 0 0 0 7.048-7.048v-23.494c0-.705-.136-1.377-.329-2.021-.644-.193-1.316-.329-2.021-.329-3.885-.001-7.047 3.162-7.047 7.048zm37.59 0v23.494c0 .705.136 1.377.329 2.021.644.193 1.316.329 2.02.329a7.056 7.056 0 0 0 7.048-7.048v-23.494c0-.705-.136-1.377-.329-2.021-.644-.193-1.316-.329-2.02-.329-3.885-.001-7.048 3.162-7.048 7.048z" fill="#f78b28"/><path d="M38.498 166.809l4.661-.583c-.578-4.624-.869-9.172-.869-13.514 0-59.591 48.483-108.073 108.073-108.073 30.989 0 58.952 13.129 78.677 34.095 18.208 19.35 29.396 45.377 29.396 73.978 0 4.342-.291 8.89-.874 13.514l4.666.583h4.718c.578-4.807.888-9.553.888-14.096 0-31.196-12.245-59.567-32.149-80.623-21.431-22.662-51.744-36.848-85.321-36.848-64.773 0-117.471 52.697-117.471 117.471 0 4.544.31 9.29.888 14.096h4.717z"/><path d="M203.558 246.689H97.172c16.15 9.214 34.259 14.096 53.191 14.096 18.936 0 37.045-4.882 53.195-14.096z" fill="#f78b28"/><path d="M150.363 270.183c25.632 0 49.902-8.148 70.351-23.494h-17.156c-16.15 9.214-34.255 14.096-53.196 14.096-18.936 0-37.041-4.882-53.191-14.096H80.016c1.311.987 2.655 1.912 3.994 2.838 19.59 13.486 42.365 20.656 66.353 20.656zm-42.29-164.459a4.7 4.7 0 0 0-4.699-4.699h-9.398v9.398h4.699v46.989h9.398v-51.688zm37.591 35.241v-23.494c0-3.331-1.01-6.428-2.725-9.022-2.941-4.464-7.988-7.424-13.721-7.424-9.069 0-16.446 7.377-16.446 16.446v23.494c0 5.733 2.96 10.779 7.424 13.721a16.303 16.303 0 0 0 9.022 2.725c9.069 0 16.446-7.377 16.446-16.446zm-23.494 0v-23.494a7.056 7.056 0 0 1 7.048-7.048c3.181 0 5.845 2.129 6.719 5.028.193.644.329 1.316.329 2.021v23.494a7.056 7.056 0 0 1-7.048 7.048c-.705 0-1.377-.136-2.02-.329-2.9-.875-5.028-3.539-5.028-6.72zm61.085 0v-23.494c0-3.331-1.01-6.428-2.725-9.022-2.941-4.464-7.988-7.424-13.721-7.424-9.069 0-16.446 7.377-16.446 16.446v23.494c0 5.733 2.96 10.779 7.424 13.721a16.303 16.303 0 0 0 9.022 2.725c9.068 0 16.446-7.377 16.446-16.446zm-23.495 0v-23.494a7.056 7.056 0 0 1 7.048-7.048c3.181 0 5.845 2.129 6.719 5.028.193.644.329 1.316.329 2.021v23.494a7.056 7.056 0 0 1-7.048 7.048c-.705 0-1.377-.136-2.02-.329-2.899-.875-5.028-3.539-5.028-6.72zm64.351-21.864l.94-1.879-8.411-4.201-9.891 19.787-.555 1.109-8.35 16.695 5.639 2.819 2.772 1.382zm-22.061 5.418v-4.699h-9.398v9.398h9.398zm28.193 18.795v-4.698h-9.398v9.397h9.398z"/><path d="M131.567 197.351a7.056 7.056 0 0 0-7.048-7.048h-2.349V204.4h2.349c3.886-.001 7.048-3.163 7.048-7.049zm32.892-2.349a4.7 4.7 0 0 0-4.699-4.699 4.704 4.704 0 0 0-4.699 4.699v23.494h9.398v-23.494zm89.278 4.698h9.398v4.699h4.699v-14.096h-14.097zm-126.652 13.895l7.683 9.6h1.499v1.875l2.255 2.824h2.443v-30.542c0 8.194-6.024 15.007-13.88 16.243zm-98.892 4.901v-4.699h-4.699v9.398a4.704 4.704 0 0 0 4.699-4.699zm4.699-23.494h-4.699v-4.699a4.704 4.704 0 0 0-4.699 4.699v9.398h9.398c2.594 0 4.699 2.1 4.699 4.699 2.594 0 4.699 2.1 4.699 4.699V199.7h-9.398v-4.698zm220.845 18.795v9.398h9.398v4.698h4.699v-14.096z" fill="#3addbe"/><path d="M298.686 171.935c-.846-.249-1.729-.428-2.66-.428H14.096c-.93 0-1.809.179-2.66.428-3.886 1.156-6.738 4.708-6.738 8.97v56.386a9.395 9.395 0 0 0 9.398 9.398h281.931a9.395 9.395 0 0 0 9.398-9.398v-56.386c-.001-4.257-2.853-7.814-6.739-8.97zm-2.659 18.368H281.93v9.398h9.398v4.699h4.699v9.398H281.93v9.398h9.398v4.699h4.699v9.398h-18.795a4.695 4.695 0 0 1-4.699-4.699 4.695 4.695 0 0 1-4.699-4.699v9.398h-18.795a4.695 4.695 0 0 1-4.699-4.699 4.695 4.695 0 0 1-4.699-4.699v-37.591h-9.398v46.988h-9.398v-4.699h-4.699v-42.29h-4.699v-4.699h-4.699v46.988a4.697 4.697 0 0 1-4.704 4.699 4.707 4.707 0 0 1-4.361-2.956l-.719-1.8c-1.734-.146-3.303-1.212-3.98-2.899l-5.032-12.583v20.238h-9.398v-4.699h-4.699v4.699h-9.398v-4.699h-4.699v-4.699h-4.699v9.398h-9.398v-4.699h-4.699v4.699h-4.699a4.702 4.702 0 0 1-3.67-1.762l-2.641-3.303c-.789-.291-1.518-.724-2.058-1.396l-5.728-7.161v13.622h-9.398v-4.699h-4.699v4.699h-9.398v-4.699h-4.699v-4.699h-4.699v9.398H79.88v-4.699h-4.699v-9.398c0 7.772-6.325 14.096-14.097 14.096-5.094 0-9.52-2.739-12.001-6.795-4.055-2.481-6.795-6.907-6.795-12.001v4.699c0 7.772-6.325 14.096-14.097 14.096-5.094 0-9.52-2.739-12.001-6.795-4.055-2.481-6.795-6.907-6.795-12.001V190.3c0-7.772 6.325-14.096 14.097-14.096 5.094 0 9.52 2.739 12.001 6.795 4.055 2.481 6.795 6.907 6.795 12.001v-18.795h9.398v4.699h4.699v42.29a4.704 4.704 0 0 0 4.699-4.699v-42.29h9.398v4.699h4.699v9.398c0-7.772 6.325-14.096 14.097-14.096 5.094 0 9.52 2.739 12.001 6.795 4.055 2.481 6.795 6.907 6.795 12.001v-14.097a4.698 4.698 0 0 1 4.699-4.699h7.048c5.733 0 10.779 2.96 13.721 7.424 4.464 2.946 7.424 7.988 7.424 13.721v-7.048c0-7.772 6.325-14.096 14.096-14.096 5.094 0 9.52 2.739 12.001 6.795 4.055 2.481 6.795 6.907 6.795 12.001v-14.097a4.697 4.697 0 0 1 3.811-4.614c2.176-.399 4.412.771 5.253 2.871l.724 1.814c1.72.155 3.299 1.198 3.975 2.885l5.032 12.583v-20.238h9.398v4.699h4.699v-4.699h28.193v4.699h4.699c0-2.598 2.1-4.699 4.699-4.699h18.795v4.699h4.699c0-2.598 2.1-4.699 4.699-4.699h18.795v4.699h4.699v9.397h-.001z" fill="#3addbe"/><path d="M98.676 195.002c0-2.594-2.11-4.699-4.699-4.699s-4.699 2.105-4.699 4.699v23.494h9.398v-23.494z" fill="#3addbe"/><path d="M37.591 218.496v-9.398a4.698 4.698 0 0 0-4.699-4.699h-9.398v9.398h4.699v4.699c0 2.594-2.11 4.699-4.699 4.699s-4.699-2.105-4.699-4.699v-28.193c0-2.594 2.11-4.699 4.699-4.699s4.699 2.105 4.699 4.699v4.699h9.398v-4.699c0-2.683-.794-5.164-2.096-7.302-2.481-4.055-6.907-6.795-12.001-6.795-7.772 0-14.097 6.325-14.097 14.096v28.193c0 5.094 2.739 9.52 6.795 12.001 2.138 1.302 4.619 2.096 7.302 2.096 7.772 0 14.097-6.324 14.097-14.096zm32.892 0v-42.29h-9.398v42.29c0 2.594-2.11 4.699-4.699 4.699s-4.699-2.105-4.699-4.699v-42.29H42.29v42.289c0 5.094 2.739 9.52 6.795 12.001 2.138 1.302 4.619 2.096 7.302 2.096 7.771 0 14.096-6.324 14.096-14.096zm32.891-28.193c0-2.683-.794-5.164-2.096-7.302-2.481-4.055-6.907-6.795-12.001-6.795-7.772 0-14.097 6.325-14.097 14.096v42.29h9.398v-9.398h9.398v9.398h9.398v-42.289zm-18.795 23.494v-23.494c0-2.594 2.11-4.699 4.699-4.699s4.699 2.105 4.699 4.699v23.494h-9.398zm84.579-23.494c0-2.683-.794-5.164-2.096-7.302-2.481-4.055-6.907-6.795-12.001-6.795-7.772 0-14.096 6.325-14.096 14.096v42.289h9.398v-9.398h9.398v9.398h9.398v-42.288h-.001zm-18.795 23.494v-23.494a4.704 4.704 0 0 1 4.699-4.699 4.7 4.7 0 0 1 4.699 4.699v23.494h-9.398zm-14.097 18.795v-9.398h-2.439l-11.437-14.299c7.852-1.236 13.876-8.049 13.876-16.244 0-3.331-1.01-6.428-2.725-9.022-2.941-4.464-7.988-7.424-13.721-7.424h-7.048a4.697 4.697 0 0 0-4.699 4.699v51.688h9.398v-14.797l4.699 5.874 5.728 7.161c.536.672 1.269 1.104 2.058 1.396.517.193 1.048.367 1.612.367h4.698v-.001zM117.471 199.7v-14.097h2.349c3.886 0 7.048 3.162 7.048 7.048s-3.162 7.048-7.048 7.048l-2.349.001zm80.768 32.808a4.698 4.698 0 0 0 3.811-4.614v-51.687h-9.398v27.286l-9.008-22.521-.724-1.814c-.841-2.1-3.078-3.27-5.253-2.871a4.706 4.706 0 0 0-3.811 4.619v51.688h9.398v-27.291l4.699 11.747 5.032 12.583c.677 1.687 2.246 2.754 3.98 2.899.127.014.249.061.381.061.296-.001.597-.029.893-.085zm27.305-46.904h9.398v-9.398h-28.193v9.398h9.397v46.988h9.398zm37.591 42.289v-4.699h-14.097v-14.097h14.097V199.7h-14.097v-14.097h14.097v-9.398H244.34a4.695 4.695 0 0 0-4.699 4.699v46.989c0 2.598 2.1 4.699 4.699 4.699h18.795v-4.699zm14.096-42.289h14.096v-9.398h-18.795a4.695 4.695 0 0 0-4.699 4.699v46.99c0 2.598 2.1 4.699 4.699 4.699h18.795v-9.398H277.23v-14.097h14.096V199.7h-14.097v-14.096h.002z"/></svg>