<svg xmlns="http://www.w3.org/2000/svg" viewBox="0 0 64 64" width="512" height="512"><path d="M62.597 28.949c-.437-.579-.889-1.178-.961-1.643-.078-.495.172-1.222.414-1.924.352-1.018.749-2.172.392-3.272-.363-1.121-1.375-1.828-2.268-2.452-.6-.419-1.219-.852-1.438-1.28-.224-.438-.211-1.202-.199-1.94.018-1.082.038-2.307-.647-3.249-.688-.946-1.864-1.305-2.901-1.621-.703-.214-1.431-.437-1.774-.78-.344-.344-.566-1.072-.78-1.775-.316-1.037-.675-2.213-1.622-2.901-.941-.685-2.167-.666-3.248-.647-.738.014-1.503.025-1.94-.199-.428-.218-.861-.838-1.28-1.438-.623-.893-1.33-1.904-2.451-2.268-1.101-.357-2.257.04-3.276.39-.702.242-1.431.491-1.924.415-.465-.073-1.064-.525-1.644-.961C34.178.746 33.188 0 32 0s-2.178.746-3.051 1.404c-.579.437-1.178.888-1.643.961-.493.079-1.221-.173-1.924-.415-1.019-.351-2.173-.748-3.272-.392-1.121.364-1.828 1.375-2.452 2.268-.419.599-.852 1.219-1.28 1.437-.438.224-1.203.21-1.94.199-1.082-.021-2.307-.039-3.249.647-.946.688-1.305 1.864-1.621 2.901-.214.704-.437 1.431-.78 1.775-.344.344-1.072.566-1.776.781-1.037.316-2.212.675-2.901 1.621-.685.941-.665 2.167-.647 3.249.012.739.024 1.502-.199 1.941-.218.427-.838.86-1.437 1.279-.893.624-1.904 1.331-2.269 2.452-.357 1.101.041 2.255.392 3.274.242.703.493 1.429.415 1.924-.073.465-.524 1.064-.961 1.643C.746 29.822 0 30.812 0 32s.746 2.178 1.404 3.051c.437.579.888 1.179.961 1.644l1.976-.311c-.15-.959-.755-1.761-1.34-2.537C2.509 33.194 2 32.519 2 32s.509-1.194 1.001-1.847c.585-.776 1.189-1.578 1.34-2.537.155-.986-.178-1.952-.5-2.886-.261-.757-.531-1.541-.38-2.004.157-.483.846-.964 1.512-1.43.8-.559 1.628-1.137 2.073-2.009.45-.882.434-1.899.417-2.883-.013-.806-.026-1.638.265-2.039.295-.405 1.094-.649 1.868-.885.938-.287 1.909-.583 2.606-1.28.697-.697.993-1.667 1.279-2.605.236-.773.479-1.573.885-1.868.401-.292 1.234-.279 2.039-.265.984.016 2 .033 2.883-.417.872-.445 1.45-1.272 2.01-2.073.465-.666.947-1.354 1.43-1.511.462-.152 1.246.12 2.003.38.935.322 1.9.654 2.886.5.958-.15 1.761-.755 2.537-1.34C30.806 2.509 31.481 2 32 2c.519 0 1.194.509 1.847 1.001.776.585 1.578 1.189 2.537 1.34.984.152 1.952-.178 2.886-.5.758-.261 1.54-.532 2.005-.38.482.157.964.845 1.43 1.511.559.8 1.138 1.628 2.009 2.073.882.45 1.903.436 2.883.417.806-.012 1.639-.027 2.04.265.405.295.648 1.094.885 1.868.286.938.582 1.909 1.279 2.606.696.697 1.667.993 2.605 1.279.772.236 1.572.48 1.867.885.292.401.278 1.233.265 2.039-.016.984-.032 2.001.418 2.883.445.872 1.272 1.45 2.072 2.009.666.466 1.354.947 1.512 1.431.15.463-.119 1.246-.38 2.003-.322.934-.654 1.9-.5 2.886.151.958.756 1.761 1.34 2.536.491.654 1 1.329 1 1.848 0 .519-.509 1.194-1.001 1.848-.584.775-1.188 1.577-1.34 2.536l1.977.311c.072-.465.524-1.064.961-1.644C63.254 34.178 64 33.188 64 32s-.746-2.178-1.403-3.051zm-8.193 21.572c-.938.286-1.909.582-2.605 1.279-.697.696-.993 1.667-1.28 2.605-.235.773-.479 1.572-.885 1.867-.4.291-1.238.277-2.038.265-.984-.016-2-.032-2.884.418-.871.445-1.449 1.272-2.008 2.072-.466.666-.947 1.354-1.431 1.512-.464.152-1.246-.118-2.004-.38-.934-.321-1.901-.648-2.886-.5-.959.151-1.761.756-2.536 1.34C33.194 61.491 32.519 62 32 62s-1.194-.509-1.848-1.001c-.775-.584-1.578-1.188-2.536-1.34-.983-.148-1.952.179-2.886.5-.757.261-1.539.532-2.004.38-.483-.157-.965-.846-1.43-1.512-.56-.801-1.138-1.628-2.009-2.073-.882-.45-1.9-.434-2.882-.417-.806.01-1.639.027-2.04-.266-.405-.295-.649-1.094-.885-1.867-.287-.938-.583-1.909-1.28-2.605-.697-.697-1.667-.993-2.606-1.28-.773-.235-1.573-.479-1.867-.885L6.11 50.812c.688.945 1.864 1.304 2.9 1.62.704.215 1.432.437 1.776.781.344.344.566 1.071.781 1.775.316 1.037.675 2.212 1.621 2.9.941.687 2.167.664 3.25.647.737-.008 1.502-.024 1.94.199.427.218.86.838 1.279 1.438.624.893 1.331 1.904 2.452 2.269 1.099.354 2.254-.04 3.273-.392.703-.241 1.431-.499 1.924-.414.465.072 1.064.524 1.643.961C29.822 63.254 30.812 64 32 64s2.178-.746 3.051-1.403c.579-.437 1.179-.889 1.644-.961.488-.086 1.221.172 1.924.414 1.02.352 2.175.75 3.272.392 1.121-.363 1.828-1.376 2.452-2.269.419-.599.853-1.219 1.279-1.437.438-.225 1.2-.213 1.94-.199 1.075.017 2.306.038 3.249-.647.945-.688 1.304-1.863 1.62-2.9.215-.703.437-1.432.781-1.775.344-.344 1.071-.566 1.774-.78 1.037-.316 2.213-.676 2.901-1.622l-1.617-1.176c-.293.404-1.093.647-1.866.884zM8 46v-2a1 1 0 0 0-1-1H5v2h1v1a1.001 1.001 0 0 1-2 0v-6a1.001 1.001 0 0 1 2 0v1h2v-1c0-1.654-1.346-3-3-3s-3 1.346-3 3v6c0 1.654 1.346 3 3 3s3-1.346 3-3zm1-9v9c0 1.654 1.346 3 3 3s3-1.346 3-3v-9h-2v9a1.001 1.001 0 0 1-2 0v-9H9zm7 3v9h2v-2h2v2h2v-9c0-1.654-1.346-3-3-3s-3 1.346-3 3zm4 0v5h-2v-5a1.001 1.001 0 0 1 2 0zm10 0v9h2v-2h2v2h2v-9c0-1.654-1.346-3-3-3s-3 1.346-3 3zm3-1a1 1 0 0 1 1 1v5h-2v-5c0-.552.449-1 1-1zm-10-1v11h2v-3.149l2.219 2.774A1 1 0 0 0 28 49h1v-2h-.52l-2.434-3.043A3.505 3.505 0 0 0 29 40.5c0-1.93-1.57-3.5-3.5-3.5H24a1 1 0 0 0-1 1zm2 1h.5c.827 0 1.5.673 1.5 1.5s-.673 1.5-1.5 1.5H25v-3zm16 3.808l-2.071-5.179a1.01 1.01 0 0 0-1.118-.611A1 1 0 0 0 37 38v11h2v-5.808l2.071 5.179A1.001 1.001 0 0 0 43 48V37h-2v5.808zM48 39h2v-2h-6v2h2v10h2V39zm8 0v-2h-4a1 1 0 0 0-1 1v10a1 1 0 0 0 1 1h4v-2h-3v-3h3v-2h-3v-3h3zm1-1v10a1 1 0 0 0 1 1h4v-2h-3v-3h3v-2h-3v-3h3v-2h-4a1 1 0 0 0-1 1z" fill="#08446d"/><path d="M57 32C57 18.215 45.785 7 32 7S7 18.215 7 32c0 1.007.068 2.058.201 3.124l1.984-.248A23.3 23.3 0 0 1 9 32C9 19.318 19.318 9 32 9c12.683 0 23 10.318 23 23 0 .924-.062 1.892-.186 2.876l1.984.248C56.933 34.058 57 33.007 57 32zm-9.733 19.791l-1.223-1.582A22.782 22.782 0 0 1 32 55a22.78 22.78 0 0 1-14.043-4.791l-1.223 1.582C21.146 55.199 26.424 57 32 57s10.855-1.801 15.267-5.209z" fill="#08446d"/><path d="M22 21h-2v2h1v10h2V22a1 1 0 0 0-1-1zm5.5 0c-1.93 0-3.5 1.57-3.5 3.5v5c0 1.93 1.57 3.5 3.5 3.5s3.5-1.57 3.5-3.5v-5c0-1.93-1.57-3.5-3.5-3.5zm1.5 8.5c0 .827-.673 1.5-1.5 1.5s-1.5-.673-1.5-1.5v-5c0-.827.673-1.5 1.5-1.5s1.5.673 1.5 1.5v5zm6.5-8.5c-1.93 0-3.5 1.57-3.5 3.5v5c0 1.93 1.57 3.5 3.5 3.5s3.5-1.57 3.5-3.5v-5c0-1.93-1.57-3.5-3.5-3.5zm1.5 8.5c0 .827-.673 1.5-1.5 1.5s-1.5-.673-1.5-1.5v-5c0-.827.673-1.5 1.5-1.5s1.5.673 1.5 1.5v5zm5.104 2.053l4-8 1.789.894-4 8-1.789-.894zM41 25h2v2h-2zm6 4h2v2h-2z" fill="#08446d"/></svg>