<svg xmlns="http://www.w3.org/2000/svg" width="512" height="512" viewBox="0 0 30.986 30.986"><path d="M10.752 14.101H0v14.521h18.503V9.139h-7.751v4.962zm-7.469 6.356H1.488v-1.795h1.795v1.795zm0-2.713H1.488v-1.795h1.795v1.795zm2.714 2.713H4.201v-1.795h1.796v1.795zm0-2.713H4.201v-1.795h1.796v1.795zm2.795 2.713H6.997v-1.795h1.795v1.795zm0-2.713H6.997v-1.795h1.795v1.795zm2.714 2.713H9.71v-1.795h1.796v1.795zm3.713-10.016h1.796v1.796h-1.796v-1.796zm0 2.713h1.796v1.795h-1.796v-1.795zm0 2.795h1.796v1.795h-1.796v-1.795zm0 2.713h1.796v1.795h-1.796v-1.795zm-2.713-8.221h1.795v1.796h-1.795v-1.796zm0 2.713h1.795v1.795h-1.795v-1.795zm0 2.795h1.795v1.795h-1.795v-1.795zm0 2.713h1.795v1.795h-1.795v-1.795zm-1-.918H9.71v-1.795h1.796v1.795zm9.586-8.605l-1.599 19.483h5L22.895 9.139zm0-.384h1.803v-.616h-1.803zm8.743-4.852c.157-1.563-2.217-2.266-3.528-.501-.75-1.826-3.938-.775-3.41.799-2.152.438-1.805 2.75-.902 3.938 0-1 .385-1.811 1.782-1.883.28 1.008 1.575 1.371 2.491.778.502.506 2.164.792 2.902-.167 2.448.834 2.165-2.401.665-2.964z" fill="#08446d"/></svg>