<svg xmlns="http://www.w3.org/2000/svg" viewBox="0 0 378.37 378.37"><path d="M186.685 138.37H366.32c.236-1.674.365-3.39.365-5.132 0-20.512-16.625-37.138-37.147-37.138a37.01 37.01 0 0 0-15.961 3.594c-.893-19.722-17.154-35.433-37.101-35.433-20.511 0-37.146 16.627-37.146 37.143 0 3.288.435 6.474 1.233 9.501a37.022 37.022 0 0 0-17.149-4.199c-18.648 0-34.076 13.752-36.729 31.664z" fill="#dedde0"/><path d="M256.685 208.37l-97.952 53.429 12.952 116.571h195v-170l-110 60v-60zm40 90h30v30h-30v-30zm-80 30h-30v-30h30v30z" fill="#006c70"/><path fill="#00d7df" d="M76.685 328.37v-30h15.5V138.372H38.351L11.685 378.37h80.5v-50z"/><path fill="#00a1a7" d="M145.019 138.372H92.185V298.37h14.5v30h-14.5v50h79.5l-12.952-116.571z"/><path d="M207.029 72.945c0-21.693-17.585-39.278-39.278-39.278a39.138 39.138 0 0 0-16.88 3.806C149.927 16.62 132.727 0 111.639 0 89.946 0 72.361 17.586 72.361 39.278c0 3.476.456 6.844 1.304 10.052a39.1 39.1 0 0 0-18.138-4.441c-19.721 0-36.037 14.539-38.842 33.481h189.958c.247-1.774.386-3.581.386-5.425z" fill="#acabb1"/><path fill="#fff" d="M186.685 298.37h30v30h-30zm110 0h30v30h-30zm-220 30h30v-30h-30z"/><path fill="#565659" d="M145.019 138.372h11.666v-30h-130v30h65.5z"/></svg>