<svg id="Слой_2" data-name="Слой 2" xmlns="http://www.w3.org/2000/svg" viewBox="0 0 485.38 209.8"><defs><style>.cls-1{font-size:72.3px}.cls-1,.cls-3{fill:#88be2a}.cls-1,.cls-2{font-family:Arial;font-weight:700}.cls-2{font-size:70.4px}.cls-2,.cls-4{fill:#333}</style></defs><title>logo</title><text class="cls-1" transform="matrix(.96 0 0 1 0 120.18)">За<tspan x="85.5" y="0">во</tspan><tspan x="172.2" y="0">д</tspan></text><text class="cls-2" transform="matrix(1.01 0 0 1 246.6 120.18)">Г<tspan x="38.98" y="0">арант</tspan></text><path class="cls-3" d="M192.7 102.47s-.55-4.68 0-18C239.38 77.83 277.21 47.27 293 52v-9.52c-35.07 0-57.1 29.6-111 34.36v25.63h10.7z" transform="translate(-65 -42.48)"/><path class="cls-4" d="M393.21 102.47s.55-4.68 0-18C346.53 77.83 308.7 47.27 293 52v-9.52c35.07 0 57.1 29.6 111 34.36v25.63h-10.79z" transform="translate(-65 -42.48)"/><path class="cls-3" d="M217.56 193.88h12.7q26.33 34.11 62.69 49v9.36c-29.23-12.05-54.95-30.52-75.39-58.36z" transform="translate(-65 -42.48)"/><path class="cls-4" d="M368.35 193.88h-12.7Q329.32 228 293 242.92v9.36c29.19-12.09 54.87-30.56 75.35-58.4z" transform="translate(-65 -42.48)"/></svg>