<?xml version="1.0" encoding="iso-8859-1"?>
<!-- Generator: Adobe Illustrator 16.0.0, SVG Export Plug-In . SVG Version: 6.00 Build 0)  -->
<!DOCTYPE svg PUBLIC "-//W3C//DTD SVG 1.1//EN" "http://www.w3.org/Graphics/SVG/1.1/DTD/svg11.dtd">
<svg xmlns="http://www.w3.org/2000/svg" xmlns:xlink="http://www.w3.org/1999/xlink" version="1.1" id="Capa_1" x="0px" y="0px" width="512px" height="512px" viewBox="0 0 67.853 67.853" style="enable-background:new 0 0 67.853 67.853;" xml:space="preserve">
<g>
	<path d="M61.652,40.124c0,15.292-12.44,27.729-27.726,27.729C18.636,67.853,6.2,55.416,6.2,40.124   c0-13.505,9.71-24.769,22.518-27.216V9.794c-2.519-0.219-4.494-2.305-4.494-4.875C24.224,2.2,26.424,0,29.141,0h10.691   c2.714,0,4.918,2.203,4.918,4.919c0,2.569-1.978,4.655-4.491,4.875v3.366c3.307,0.778,6.453,2.146,9.272,4.069l4.261-4.261   l3.431,13.147l-13.148-3.427l2.981-2.982c-3.9-2.507-8.456-3.882-13.134-3.882c-13.4,0-24.305,10.901-24.305,24.301   c0,13.403,10.905,24.308,24.305,24.308c13.397,0,24.305-10.904,24.305-24.308H61.652L61.652,40.124z M27.026,40.382   c-2.333,1.64-3.932,3.059-4.77,4.259c-0.848,1.193-1.271,2.628-1.271,4.302v0.005h12.49v-3.166h-8.019l0.011-0.027   c0.608-0.844,1.731-1.793,3.381-2.836c1.781-1.14,2.996-2.164,3.648-3.072c0.646-0.917,0.972-2.068,0.972-3.456   c0-1.693-0.57-3.075-1.703-4.143c-1.154-1.073-2.625-1.608-4.429-1.608c-1.935,0-3.455,0.582-4.553,1.745   c-1.101,1.166-1.618,2.736-1.565,4.728h3.531c-0.032-1.07,0.183-1.91,0.639-2.529c0.462-0.619,1.104-0.928,1.924-0.928   c0.764,0,1.393,0.249,1.854,0.746c0.472,0.491,0.706,1.141,0.706,1.952c0,0.748-0.218,1.421-0.637,2.029   C28.813,38.983,28.078,39.654,27.026,40.382z M41.794,48.949v-4.035h-7.249v-1.556v-1.556l6.764-11.171h2.013h2.002v11.42h2.067   v2.862h-2.067v4.035H41.794z M41.794,42.054v-7.629l-4.444,7.378l-0.146,0.251H41.794z M35.045,18.635h-1.708v3.431h1.708V18.635z    M35.045,57.515h-1.708v3.431h1.708V57.515z M55.343,40.645v-1.709h-3.431v1.709H55.343z M16.466,40.645v-1.709h-3.431v1.709   H16.466z" fill="#08446d"/>
</g>
<g>
</g>
<g>
</g>
<g>
</g>
<g>
</g>
<g>
</g>
<g>
</g>
<g>
</g>
<g>
</g>
<g>
</g>
<g>
</g>
<g>
</g>
<g>
</g>
<g>
</g>
<g>
</g>
<g>
</g>
</svg>
