<?xml version="1.0" encoding="iso-8859-1"?>
<!-- Generator: Adobe Illustrator 19.0.0, SVG Export Plug-In . SVG Version: 6.00 Build 0)  -->
<svg version="1.1" id="Layer_1" xmlns="http://www.w3.org/2000/svg" xmlns:xlink="http://www.w3.org/1999/xlink" x="0px" y="0px"
	 viewBox="0 0 305.425 305.425" style="enable-background:new 0 0 305.425 305.425;" xml:space="preserve">
<g>
	<g>
		<path style="fill:#F8CF26;" d="M38.046,166.809H33.78c-0.578-4.807-0.888-9.553-0.888-14.096
			c0-64.773,52.697-117.471,117.471-117.471c33.578,0,63.89,14.186,85.321,36.848c22.662,21.431,36.848,51.744,36.848,85.321
			c0,4.544-0.31,9.29-0.888,14.097h15.915c0.968-1.626,2.1-3.176,3.237-4.699h-7.936c1.118-1.88,2.448-3.665,3.768-5.413
			c2.307-3.073,4.699-6.245,4.699-8.683c0-2.439-2.392-5.61-4.704-8.683c-2.744-3.642-5.582-7.415-6.296-11.916
			c-0.724-4.633,0.836-9.172,2.349-13.561c1.226-3.557,2.49-7.236,1.786-9.412c-0.056-0.179-0.221-0.357-0.305-0.531
			c-0.686-0.498-1.391-0.996-2.096-1.49c-3.092-2.161-6.207-4.426-8.401-7.424c-2.42-1.889-4.638-3.985-6.033-6.715
			c-2.114-4.144-2.039-8.923-1.964-13.547c0.047-2.655,0.061-5.328-0.385-7.368c-1.504-0.611-3.223-1.151-4.929-1.673
			c-4.408-1.344-8.97-2.739-12.24-6.01c-0.799-0.799-1.48-1.682-2.082-2.613c-0.935-0.601-1.818-1.287-2.617-2.086
			c-3.275-3.275-4.666-7.833-6.01-12.245c-0.522-1.71-1.057-3.43-1.673-4.934c-2.039-0.451-4.718-0.428-7.372-0.39
			c-4.6,0.085-9.402,0.15-13.547-1.959c-2.73-1.396-4.821-3.609-6.71-6.029c-2.998-2.194-5.267-5.319-7.429-8.411
			c-0.493-0.705-0.991-1.41-1.494-2.096c-0.174-0.085-0.352-0.249-0.526-0.305c-2.185-0.714-5.859,0.559-9.421,1.786
			c-4.389,1.513-8.932,3.064-13.561,2.349c-4.506-0.705-8.275-3.548-11.921-6.296c-3.073-2.317-6.245-4.708-8.683-4.708
			s-5.61,2.392-8.679,4.704c-3.646,2.749-7.415,5.587-11.921,6.296c-4.633,0.724-9.172-0.836-13.561-2.349
			c-3.557-1.222-7.241-2.5-9.412-1.786c-2.27,0.738-4.534,3.971-6.719,7.1c-2.631,3.759-5.347,7.65-9.445,9.741
			c-4.144,2.119-8.918,2.039-13.547,1.959c-3.778-0.07-7.697-0.127-9.581,1.245c-1.903,1.386-3.05,5.141-4.158,8.777
			c-1.344,4.408-2.739,8.97-6.01,12.24c-3.275,3.275-7.833,4.666-12.245,6.015c-3.632,1.109-7.391,2.255-8.777,4.158
			c-1.372,1.884-1.306,5.794-1.245,9.581c0.075,4.619,0.155,9.398-1.959,13.547c-2.091,4.097-5.977,6.813-9.741,9.44
			c-3.129,2.19-6.367,4.45-7.105,6.719c-0.71,2.18,0.559,5.859,1.786,9.416c1.513,4.389,3.073,8.928,2.349,13.561
			c-0.705,4.501-3.548,8.275-6.296,11.921c-2.307,3.068-4.699,6.24-4.699,8.679s2.392,5.61,4.704,8.679
			c1.32,1.753,2.655,3.538,3.768,5.418h15.91C38.291,169.929,38.178,168.369,38.046,166.809z"/>
		<path d="M208.088,34.123c0.648,0.475,1.283,0.959,2.011,1.33c4.144,2.114,8.942,2.049,13.547,1.959
			c3.787-0.056,7.701-0.127,9.586,1.245c1.01,0.733,1.795,2.152,2.486,3.844c0.611,1.504,1.147,3.223,1.673,4.934
			c1.344,4.408,2.735,8.97,6.01,12.245c0.799,0.803,1.682,1.485,2.617,2.086c2.88,1.861,6.296,2.909,9.628,3.924
			c3.628,1.109,7.387,2.255,8.773,4.158c0.409,0.564,0.663,1.344,0.855,2.213c0.451,2.035,0.432,4.713,0.385,7.368
			c-0.075,4.624-0.15,9.402,1.964,13.547c1.396,2.73,3.613,4.826,6.033,6.715c1.208,0.944,2.453,1.851,3.703,2.725
			c2.885,2.016,5.77,4.097,6.794,6.188c0.089,0.179,0.249,0.352,0.305,0.531c0.705,2.176-0.559,5.855-1.786,9.412
			c-1.513,4.389-3.073,8.928-2.349,13.561c0.71,4.501,3.552,8.275,6.296,11.916c2.317,3.078,4.708,6.249,4.708,8.688
			c0,2.439-2.392,5.61-4.704,8.683c-1.32,1.748-2.65,3.534-3.768,5.413h7.936h0.536c0.93,0,1.814,0.179,2.66,0.428
			c0.047-0.061,0.094-0.127,0.141-0.193c3.092-4.097,6.597-8.749,6.597-14.331s-3.505-10.234-6.592-14.336
			c-2.053-2.721-4.177-5.535-4.516-7.72c-0.367-2.326,0.808-5.742,1.945-9.041c1.654-4.783,3.519-10.206,1.842-15.375
			c-1.706-5.267-6.461-8.589-10.657-11.522c-2.819-1.969-5.728-4.003-6.757-6.015c-1.053-2.058-0.991-5.648-0.935-9.116
			c0.085-5.084,0.179-10.84-3.04-15.267c-3.233-4.445-8.759-6.132-13.631-7.617c-3.303-1.006-6.724-2.053-8.336-3.665
			c-1.616-1.616-2.66-5.037-3.665-8.34c-1.485-4.873-3.172-10.399-7.622-13.631c-4.422-3.219-10.182-3.129-15.262-3.04
			c-3.468,0.066-7.062,0.117-9.116-0.935c-2.011-1.024-4.046-3.938-6.014-6.757c-2.927-4.196-6.249-8.947-11.517-10.657
			c-5.173-1.677-10.605,0.188-15.393,1.833c-3.299,1.137-6.724,2.307-9.041,1.95c-2.185-0.343-5-2.467-7.725-4.516
			c-4.097-3.092-8.749-6.597-14.331-6.597s-10.234,3.505-14.336,6.597c-2.721,2.053-5.535,4.173-7.72,4.516
			c-2.317,0.371-5.737-0.813-9.041-1.95c-4.788-1.649-10.211-3.515-15.375-1.842c-5.267,1.71-8.589,6.461-11.522,10.657
			c-1.969,2.815-4.003,5.728-6.015,6.752c-2.058,1.053-5.653,0.987-9.116,0.935c-5.084-0.099-10.84-0.183-15.267,3.04
			c-4.445,3.233-6.132,8.759-7.617,13.631c-1.006,3.308-2.053,6.724-3.665,8.34c-1.616,1.616-5.037,2.66-8.345,3.67
			c-4.873,1.485-10.394,3.172-13.631,7.617c-3.219,4.422-3.125,10.182-3.04,15.267c0.056,3.472,0.113,7.058-0.935,9.12
			c-1.024,2.006-3.938,4.041-6.752,6.01c-4.196,2.932-8.947,6.254-10.662,11.522c-1.677,5.173,0.193,10.596,1.842,15.384
			c1.137,3.303,2.317,6.715,1.95,9.041c-0.343,2.185-2.462,5-4.516,7.72C3.505,142.478,0,147.13,0,152.712
			s3.505,10.234,6.597,14.336c0.047,0.061,0.094,0.127,0.141,0.188c0.85-0.249,1.729-0.428,2.66-0.428h8.472
			c-1.118-1.88-2.448-3.665-3.768-5.418c-2.312-3.068-4.704-6.24-4.704-8.679s2.392-5.61,4.704-8.679
			c2.749-3.646,5.587-7.415,6.296-11.921c0.728-4.633-0.836-9.172-2.349-13.561c-1.226-3.557-2.495-7.241-1.786-9.416
			c0.738-2.27,3.975-4.53,7.105-6.719c3.759-2.627,7.65-5.343,9.741-9.44c2.114-4.144,2.039-8.923,1.959-13.547
			c-0.061-3.787-0.122-7.697,1.245-9.581c1.386-1.903,5.141-3.05,8.777-4.158c4.408-1.349,8.97-2.739,12.245-6.015
			c3.275-3.275,4.666-7.833,6.01-12.24c1.109-3.632,2.251-7.391,4.158-8.777c1.884-1.372,5.798-1.311,9.581-1.245
			c4.624,0.075,9.398,0.155,13.547-1.959c4.097-2.091,6.813-5.977,9.445-9.741c2.185-3.129,4.45-6.362,6.719-7.1
			c2.171-0.714,5.855,0.564,9.412,1.786c4.393,1.513,8.928,3.073,13.561,2.349c4.501-0.705,8.275-3.548,11.921-6.296
			c3.064-2.312,6.235-4.704,8.674-4.704s5.61,2.392,8.679,4.704c3.646,2.749,7.415,5.587,11.921,6.296
			c4.624,0.714,9.172-0.836,13.561-2.349c3.562-1.226,7.236-2.5,9.421-1.786c1.757,0.569,3.51,2.645,5.225,5.004
			c0.498,0.686,0.996,1.391,1.494,2.096C202.82,28.804,205.09,31.929,208.088,34.123z"/>
		<path style="fill:#F8CF26;" d="M62.025,250.443c3.275,3.27,4.666,7.833,6.015,12.24c0.522,1.71,1.057,3.425,1.668,4.929
			c2.039,0.446,4.718,0.428,7.372,0.395c4.614-0.08,9.398-0.155,13.542,1.959c2.73,1.396,4.826,3.609,6.71,6.029
			c2.998,2.194,5.267,5.314,7.429,8.411c0.493,0.705,0.991,1.414,1.49,2.1c0.179,0.085,0.352,0.249,0.531,0.305
			c2.185,0.714,5.859-0.559,9.416-1.786c4.393-1.508,8.942-3.045,13.561-2.349c4.501,0.71,8.275,3.552,11.916,6.296
			c3.078,2.312,6.249,4.704,8.688,4.704s5.61-2.392,8.683-4.704c3.642-2.744,7.41-5.582,11.916-6.296
			c4.624-0.695,9.172,0.841,13.561,2.349c3.562,1.231,7.236,2.5,9.416,1.786c2.27-0.738,4.534-3.975,6.724-7.105
			c2.627-3.759,5.343-7.645,9.435-9.736c4.154-2.115,8.923-2.039,13.551-1.964c3.759,0.061,7.697,0.122,9.576-1.245
			c1.903-1.386,3.05-5.141,4.158-8.773c1.231-4.022,2.566-8.12,5.267-11.301h-18.72l2.871,3.717
			c-20.736,16.014-45.541,24.476-71.742,24.476s-51.001-8.463-71.732-24.476l0.681-0.879c-1.344-0.926-2.683-1.851-3.994-2.838
			H58.082c0.465,0.55,0.959,1.085,1.349,1.687C60.352,248.977,61.231,249.649,62.025,250.443z"/>
		<path d="M242.643,246.689c-2.697,3.181-4.036,7.278-5.267,11.301c-1.104,3.632-2.251,7.387-4.158,8.773
			c-1.88,1.367-5.817,1.302-9.576,1.245c-4.624-0.075-9.398-0.15-13.551,1.964c-4.093,2.091-6.809,5.977-9.435,9.736
			c-2.19,3.129-4.45,6.362-6.724,7.105c-2.18,0.714-5.855-0.554-9.416-1.786c-4.389-1.508-8.932-3.045-13.561-2.349
			c-4.506,0.71-8.275,3.552-11.916,6.296c-3.064,2.312-6.235,4.704-8.674,4.704s-5.61-2.392-8.683-4.704
			c-3.642-2.744-7.415-5.582-11.916-6.296c-4.619-0.695-9.172,0.841-13.561,2.349c-3.557,1.226-7.232,2.5-9.416,1.786
			c-0.179-0.056-0.352-0.221-0.531-0.305c-2.091-1.024-4.173-3.914-6.188-6.799c-0.879-1.255-1.786-2.5-2.73-3.712
			c-1.889-2.42-3.98-4.638-6.71-6.029c-4.144-2.115-8.928-2.039-13.542-1.959c-2.655,0.033-5.338,0.056-7.372-0.395
			c-0.869-0.193-1.649-0.442-2.213-0.855c-1.903-1.386-3.05-5.141-4.158-8.773c-1.015-3.322-2.058-6.729-3.914-9.609
			c-0.39-0.601-0.879-1.137-1.349-1.687h-1.814H36.637c1.884,0.799,3.825,1.457,5.7,2.03c3.308,1.01,6.729,2.053,8.345,3.67
			c1.616,1.616,2.66,5.032,3.67,8.34c1.485,4.873,3.172,10.394,7.617,13.627c4.422,3.228,10.182,3.12,15.271,3.04
			c3.463-0.038,7.058-0.113,9.116,0.935c2.006,1.024,4.041,3.938,6.01,6.757c2.932,4.196,6.254,8.947,11.522,10.662
			c5.164,1.663,10.591-0.188,15.379-1.842c3.303-1.132,6.724-2.345,9.041-1.945c2.185,0.338,5,2.462,7.72,4.516
			c4.102,3.092,8.754,6.597,14.336,6.597s10.234-3.505,14.336-6.592c2.721-2.053,5.54-4.177,7.725-4.516
			c2.293-0.404,5.737,0.808,9.041,1.945c4.793,1.654,10.22,3.524,15.375,1.842c5.267-1.706,8.589-6.466,11.522-10.662
			c1.969-2.815,4.008-5.728,6.01-6.752c2.058-1.057,5.639-1.001,9.116-0.935c5.051,0.08,10.836,0.179,15.267-3.04
			c4.44-3.233,6.127-8.754,7.612-13.627c1.01-3.303,2.053-6.729,3.67-8.34c1.616-1.616,5.032-2.66,8.336-3.665
			c1.88-0.573,3.83-1.236,5.723-2.039h-10.239h-11.211v-0.007H242.643z"/>
		<path style="fill:#F78B28;" d="M262.655,166.809h-0.428l0,0l-4.661-0.583c0.578-4.624,0.869-9.172,0.869-13.514
			c0-28.602-11.188-54.629-29.396-73.978c-19.35-18.208-45.377-29.396-73.978-29.396c-59.591,0-108.073,48.483-108.073,108.073
			c0,4.342,0.291,8.89,0.874,13.514l-4.666,0.583h223.726l-4.661-0.583C262.435,169.539,262.533,168.176,262.655,166.809z
			 M187.953,145.664c0,9.069-7.377,16.446-16.446,16.446c-5.733,0-10.779-2.96-13.721-7.424c-4.464-2.941-7.424-7.988-7.424-13.721
			v4.699c0,9.069-7.377,16.446-16.446,16.446c-5.733,0-10.779-2.96-13.721-7.424c-4.464-2.941-7.424-7.988-7.424-13.721v21.145
			h-9.398v-4.699h-4.699v-42.29v-4.699h-4.699v-9.398h9.398c2.594,0,4.699,2.105,4.699,4.699c2.594,0,4.699,2.105,4.699,4.699v7.048
			c0-9.069,7.377-16.446,16.446-16.446c5.733,0,10.779,2.96,13.721,7.424c4.464,2.946,7.424,7.988,7.424,13.721v-4.699
			c0-9.069,7.377-16.446,16.446-16.446c5.733,0,10.779,2.96,13.721,7.424c4.464,2.946,7.424,7.988,7.424,13.721L187.953,145.664
			L187.953,145.664z M234.942,152.712h-9.398v-4.699h-4.699v-8.289l-9.891,19.787l-8.406-4.205l0.94-1.88l-5.639-2.819l8.345-16.69
			h-8.843v-4.699h-4.699v-9.398h9.398v4.699h4.699v8.289l9.891-19.787l8.406,4.205l-0.94,1.88l5.639,2.819l-8.345,16.69h8.843v4.699
			h4.699V152.712z"/>
		<path style="fill:#F78B28;" d="M126.869,122.17v23.494c0,0.705,0.136,1.377,0.329,2.021c0.644,0.193,1.316,0.329,2.02,0.329
			c3.886,0,7.048-3.162,7.048-7.048v-23.494c0-0.705-0.136-1.377-0.329-2.021c-0.644-0.193-1.316-0.329-2.021-0.329
			C130.031,115.121,126.869,118.284,126.869,122.17z"/>
		<path style="fill:#F78B28;" d="M164.459,122.17v23.494c0,0.705,0.136,1.377,0.329,2.021c0.644,0.193,1.316,0.329,2.02,0.329
			c3.886,0,7.048-3.162,7.048-7.048v-23.494c0-0.705-0.136-1.377-0.329-2.021c-0.644-0.193-1.316-0.329-2.02-0.329
			C167.622,115.121,164.459,118.284,164.459,122.17z"/>
		<path d="M38.498,166.809l4.661-0.583c-0.578-4.624-0.869-9.172-0.869-13.514c0-59.591,48.483-108.073,108.073-108.073
			c30.989,0,58.952,13.129,78.677,34.095c18.208,19.35,29.396,45.377,29.396,73.978c0,4.342-0.291,8.89-0.874,13.514l4.666,0.583
			l0,0h0.428h4.29c0.578-4.807,0.888-9.553,0.888-14.096c0-31.196-12.245-59.567-32.149-80.623
			c-21.431-22.662-51.744-36.848-85.321-36.848c-64.773,0-117.471,52.697-117.471,117.471c0,4.544,0.31,9.29,0.888,14.096h4.262
			H38.498L38.498,166.809z"/>
		<path style="fill:#F78B28;" d="M203.558,246.689H97.172c16.15,9.214,34.259,14.096,53.191,14.096
			C169.299,260.785,187.408,255.903,203.558,246.689z"/>
		<path d="M150.363,270.183c25.632,0,49.902-8.148,70.351-23.494h-4.901h-12.255c-16.15,9.214-34.255,14.096-53.196,14.096
			c-18.936,0-37.041-4.882-53.191-14.096h-2.857h-8.11l0,0h-6.188c1.311,0.987,2.655,1.912,3.994,2.838
			C103.6,263.013,126.375,270.183,150.363,270.183z"/>
		<path d="M108.073,105.724c0-2.594-2.105-4.699-4.699-4.699h-9.398v9.398h4.699v4.699v42.29h4.699h4.699
			C108.073,157.412,108.073,105.724,108.073,105.724z"/>
		<path d="M145.664,140.965v-23.494c0-3.331-1.01-6.428-2.725-9.022c-2.941-4.464-7.988-7.424-13.721-7.424
			c-9.069,0-16.446,7.377-16.446,16.446v23.494c0,5.733,2.96,10.779,7.424,13.721c2.594,1.715,5.69,2.725,9.022,2.725
			C138.287,157.411,145.664,150.034,145.664,140.965z M122.17,140.965v-23.494c0-3.886,3.162-7.048,7.048-7.048
			c3.181,0,5.845,2.129,6.719,5.028c0.193,0.644,0.329,1.316,0.329,2.021v23.494c0,3.886-3.162,7.048-7.048,7.048
			c-0.705,0-1.377-0.136-2.02-0.329C124.298,146.81,122.17,144.146,122.17,140.965z"/>
		<path d="M183.255,140.965v-23.494c0-3.331-1.01-6.428-2.725-9.022c-2.941-4.464-7.988-7.424-13.721-7.424
			c-9.069,0-16.446,7.377-16.446,16.446v4.699v18.795c0,5.733,2.96,10.779,7.424,13.721c2.594,1.715,5.69,2.725,9.022,2.725
			C175.877,157.411,183.255,150.034,183.255,140.965z M159.76,140.965v-23.494c0-3.886,3.162-7.048,7.048-7.048
			c3.181,0,5.845,2.129,6.719,5.028c0.193,0.644,0.329,1.316,0.329,2.021v23.494c0,3.886-3.162,7.048-7.048,7.048
			c-0.705,0-1.377-0.136-2.02-0.329C161.889,146.81,159.76,144.146,159.76,140.965z"/>
		<polygon points="224.111,119.101 225.051,117.222 216.64,113.021 206.749,132.808 206.194,133.917 197.844,150.612 
			203.483,153.431 206.255,154.813 		"/>
		<polygon points="202.05,124.519 202.05,119.82 192.652,119.82 192.652,129.218 197.351,129.218 202.05,129.218 		"/>
		<polygon points="230.243,143.314 230.243,138.616 221.4,138.616 220.845,138.616 220.845,139.725 220.845,148.013 
			225.544,148.013 230.243,148.013 		"/>
		<path style="fill:#3ADDBE;" d="M131.567,197.351c0-3.886-3.162-7.048-7.048-7.048h-2.349V204.4h2.349
			C128.405,204.399,131.567,201.237,131.567,197.351z"/>
		<path style="fill:#3ADDBE;" d="M164.459,195.002c0-2.594-2.105-4.699-4.699-4.699c-2.589,0-4.699,2.105-4.699,4.699v23.494h9.398
			L164.459,195.002L164.459,195.002z"/>
		<polygon style="fill:#3ADDBE;" points="253.737,199.7 263.135,199.7 263.135,204.399 267.834,204.399 267.834,190.303 
			253.737,190.303 		"/>
		<path style="fill:#3ADDBE;" d="M127.085,213.595l7.683,9.6h1.499v1.875l2.255,2.824h2.443v-30.542
			C140.965,205.546,134.941,212.359,127.085,213.595z"/>
		<path style="fill:#3ADDBE;" d="M28.193,218.496v-4.699h-4.699v9.398C26.083,223.195,28.193,221.09,28.193,218.496z"/>
		<path style="fill:#3ADDBE;" d="M32.892,195.002h-4.699v-4.699c-2.589,0-4.699,2.105-4.699,4.699v9.398h9.398
			c2.594,0,4.699,2.1,4.699,4.699c2.594,0,4.699,2.1,4.699,4.699V199.7h-9.398C32.892,199.7,32.892,195.002,32.892,195.002z"/>
		<polygon style="fill:#3ADDBE;" points="253.737,213.797 253.737,223.195 263.135,223.195 263.135,227.893 267.834,227.893 
			267.834,213.797 		"/>
		<path style="fill:#3ADDBE;" d="M298.686,171.935c-0.846-0.249-1.729-0.428-2.66-0.428h-8.472H271.64h-4.718l0,0H43.196l0,0h-4.718
			h-15.91h-8.472c-0.93,0-1.809,0.179-2.66,0.428c-3.886,1.156-6.738,4.708-6.738,8.97v56.386c0,5.192,4.205,9.398,9.398,9.398
			h20.181h2.354h19.632h1.814h21.934H86.2l0,0h8.11h2.857h106.386h12.255h4.901h3.209l0,0h18.72h11.216h10.239h11.738h20.196
			c5.192,0,9.398-4.205,9.398-9.398v-56.386C305.424,176.648,302.572,173.091,298.686,171.935z M296.027,190.303H281.93v9.398h9.398
			v4.699h4.699v9.398H281.93v9.398h9.398v4.699h4.699v9.398h-18.795c-2.598,0-4.699-2.1-4.699-4.699c-2.598,0-4.699-2.1-4.699-4.699
			v9.398h-18.795c-2.598,0-4.699-2.1-4.699-4.699c-2.598,0-4.699-2.1-4.699-4.699v-37.591h-9.398v46.988h-9.398v-4.699h-4.699
			v-42.29h-4.699v-4.699h-4.699v46.988c0,2.251-1.598,4.191-3.811,4.614c-0.296,0.056-0.597,0.085-0.893,0.085
			c-1.884,0-3.632-1.142-4.361-2.956l-0.719-1.8c-1.734-0.146-3.303-1.212-3.98-2.899l-5.032-12.583v20.238h-9.398v-4.699h-4.699
			v4.699h-9.398v-4.699h-4.699v-4.699h-4.699v9.398h-9.398v-4.699h-4.699v4.699h-4.699c-1.428,0-2.777-0.648-3.67-1.762
			l-2.641-3.303c-0.789-0.291-1.518-0.724-2.058-1.396l-5.728-7.161v13.622h-9.398v-4.699h-4.699v4.699h-9.398v-4.699h-4.699v-4.699
			h-4.699v9.398H79.88v-4.699h-4.699v-9.398c0,7.772-6.325,14.096-14.097,14.096c-5.094,0-9.52-2.739-12.001-6.795
			c-4.055-2.481-6.795-6.907-6.795-12.001v4.699c0,7.772-6.325,14.096-14.097,14.096c-5.094,0-9.52-2.739-12.001-6.795
			c-4.055-2.481-6.795-6.907-6.795-12.001V190.3c0-7.772,6.325-14.096,14.097-14.096c5.094,0,9.52,2.739,12.001,6.795
			c4.055,2.481,6.795,6.907,6.795,12.001v-18.795h9.398v4.699h4.699v42.29c2.589,0,4.699-2.105,4.699-4.699v-42.29h9.398v4.699
			h4.699v9.398c0-7.772,6.325-14.096,14.097-14.096c5.094,0,9.52,2.739,12.001,6.795c4.055,2.481,6.795,6.907,6.795,12.001v-14.097
			c0-2.598,2.105-4.699,4.699-4.699h7.048c5.733,0,10.779,2.96,13.721,7.424c4.464,2.946,7.424,7.988,7.424,13.721v-7.048
			c0-7.772,6.325-14.096,14.096-14.096c5.094,0,9.52,2.739,12.001,6.795c4.055,2.481,6.795,6.907,6.795,12.001v-14.097
			c0-2.251,1.598-4.191,3.811-4.614c2.176-0.399,4.412,0.771,5.253,2.871l0.724,1.814c1.72,0.155,3.299,1.198,3.975,2.885
			l5.032,12.583v-20.238h9.398v4.699h4.699v-4.699h28.193v4.699h4.699c0-2.598,2.1-4.699,4.699-4.699h18.795v4.699h4.699
			c0-2.598,2.1-4.699,4.699-4.699h18.795v4.699h4.699v9.397H296.027z"/>
		<path style="fill:#3ADDBE;" d="M98.676,195.002c0-2.594-2.11-4.699-4.699-4.699s-4.699,2.105-4.699,4.699v23.494h9.398
			C98.676,218.496,98.676,195.002,98.676,195.002z"/>
		<path d="M37.591,218.496v-9.398c0-2.598-2.105-4.699-4.699-4.699h-9.398v9.398h4.699v4.699c0,2.594-2.11,4.699-4.699,4.699
			s-4.699-2.105-4.699-4.699v-28.193c0-2.594,2.11-4.699,4.699-4.699s4.699,2.105,4.699,4.699v4.699h4.699h4.699v-4.699
			c0-2.683-0.794-5.164-2.096-7.302c-2.481-4.055-6.907-6.795-12.001-6.795c-7.772,0-14.097,6.325-14.097,14.096v28.193
			c0,5.094,2.739,9.52,6.795,12.001c2.138,1.302,4.619,2.096,7.302,2.096C31.266,232.592,37.591,226.268,37.591,218.496z"/>
		<path d="M70.483,218.496v-37.591v-4.699h-9.398v42.29c0,2.594-2.11,4.699-4.699,4.699s-4.699-2.105-4.699-4.699v-37.591v-4.699
			H42.29v18.795v4.699v14.096v4.699c0,5.094,2.739,9.52,6.795,12.001c2.138,1.302,4.619,2.096,7.302,2.096
			C64.158,232.592,70.483,226.268,70.483,218.496z"/>
		<path d="M103.374,190.303c0-2.683-0.794-5.164-2.096-7.302c-2.481-4.055-6.907-6.795-12.001-6.795
			c-7.772,0-14.097,6.325-14.097,14.096v32.892v9.398h4.699h4.699v-9.398h9.398v4.699v4.699h4.699h4.699
			C103.374,232.592,103.374,190.303,103.374,190.303z M84.579,213.797v-23.494c0-2.594,2.11-4.699,4.699-4.699
			s4.699,2.105,4.699,4.699v23.494H84.579z"/>
		<path d="M169.158,190.303c0-2.683-0.794-5.164-2.096-7.302c-2.481-4.055-6.907-6.795-12.001-6.795
			c-7.772,0-14.096,6.325-14.096,14.096v7.048v30.542v4.699h4.699h4.699v-9.398h9.398v4.699v4.699h4.699h4.699v-42.288H169.158z
			 M150.363,213.797v-23.494c0-2.594,2.11-4.699,4.699-4.699c2.594,0,4.699,2.105,4.699,4.699v23.494H150.363z"/>
		<path d="M136.266,232.592v-7.523v-1.875h-1.499h-0.94l-11.437-14.299c7.852-1.236,13.876-8.049,13.876-16.244
			c0-3.331-1.01-6.428-2.725-9.022c-2.941-4.464-7.988-7.424-13.721-7.424h-7.048c-2.594,0-4.699,2.1-4.699,4.699v14.097v9.379
			v0.033v28.179h4.699h4.699v-14.797l4.699,5.874l5.728,7.161c0.536,0.672,1.269,1.104,2.058,1.396
			c0.517,0.193,1.048,0.367,1.612,0.367h4.698V232.592z M117.471,199.7v-14.097h2.349c3.886,0,7.048,3.162,7.048,7.048
			s-3.162,7.048-7.048,7.048L117.471,199.7L117.471,199.7z"/>
		<path d="M198.239,232.508c2.213-0.423,3.811-2.364,3.811-4.614v-46.988v-4.699h-9.398v20.238v7.048l-9.008-22.521l-0.724-1.814
			c-0.841-2.1-3.078-3.27-5.253-2.871c-2.213,0.428-3.811,2.368-3.811,4.619v14.097v37.591h4.699h4.699v-27.291l4.699,11.747
			l5.032,12.583c0.677,1.687,2.246,2.754,3.98,2.899c0.127,0.014,0.249,0.061,0.381,0.061
			C197.642,232.592,197.943,232.564,198.239,232.508z"/>
		<polygon points="225.544,185.604 234.942,185.604 234.942,180.905 234.942,176.206 206.749,176.206 206.749,180.905 
			206.749,185.604 211.448,185.604 216.146,185.604 216.146,190.303 216.146,232.592 220.845,232.592 225.544,232.592 		"/>
		<path d="M263.135,227.893v-4.699h-9.398h-4.699v-14.097h14.097v-4.699V199.7h-9.398h-4.699v-14.097h14.097v-4.699v-4.699H244.34
			c-2.598,0-4.699,2.1-4.699,4.699v9.398v37.591c0,2.598,2.1,4.699,4.699,4.699h18.795V227.893z"/>
		<path d="M277.231,185.604h14.096v-4.699v-4.699h-18.795c-2.598,0-4.699,2.1-4.699,4.699v9.398V204.4v9.398v14.097
			c0,2.598,2.1,4.699,4.699,4.699h18.795v-4.699v-4.699h-9.398h-4.699v-14.097h14.096V204.4v-4.7h-9.398h-4.699v-14.096H277.231z"/>
	</g>
</g>
<g>
</g>
<g>
</g>
<g>
</g>
<g>
</g>
<g>
</g>
<g>
</g>
<g>
</g>
<g>
</g>
<g>
</g>
<g>
</g>
<g>
</g>
<g>
</g>
<g>
</g>
<g>
</g>
<g>
</g>
</svg>
