<?xml version="1.0" encoding="iso-8859-1"?>
<!-- Generator: Adobe Illustrator 16.0.0, SVG Export Plug-In . SVG Version: 6.00 Build 0)  -->
<!DOCTYPE svg PUBLIC "-//W3C//DTD SVG 1.1//EN" "http://www.w3.org/Graphics/SVG/1.1/DTD/svg11.dtd">
<svg xmlns="http://www.w3.org/2000/svg" xmlns:xlink="http://www.w3.org/1999/xlink" version="1.1" id="Capa_1" x="0px" y="0px" width="512px" height="512px" viewBox="0 0 30.986 30.986" style="enable-background:new 0 0 30.986 30.986;" xml:space="preserve">
<g>
	<g>
		<path d="M10.752,14.101H0v14.521h8.752h9.751V9.139h-7.751V14.101z M3.283,20.457H1.488v-1.795h1.795V20.457z M3.283,17.744H1.488    v-1.795h1.795V17.744z M5.997,20.457H4.201v-1.795h1.796V20.457z M5.997,17.744H4.201v-1.795h1.796V17.744z M8.792,20.457H6.997    v-1.795h1.795V20.457z M8.792,17.744H6.997v-1.795h1.795V17.744z M11.506,20.457H9.71v-1.795h1.796V20.457z M15.219,10.441h1.796    v1.796h-1.796V10.441z M15.219,13.154h1.796v1.795h-1.796V13.154z M15.219,15.949h1.796v1.795h-1.796V15.949z M15.219,18.662    h1.796v1.795h-1.796V18.662z M12.506,10.441h1.795v1.796h-1.795V10.441z M12.506,13.154h1.795v1.795h-1.795V13.154z     M12.506,15.949h1.795v1.795h-1.795V15.949z M12.506,18.662h1.795v1.795h-1.795V18.662z M11.506,17.744H9.71v-1.795h1.796V17.744z    " fill="#08446d"/>
		<polygon points="21.092,9.139 19.493,28.622 24.493,28.622 22.895,9.139   " fill="#08446d"/>
		<polygon points="21.092,8.755 22.895,8.755 22.895,8.139 21.993,8.139 21.092,8.139   " fill="#08446d"/>
		<path d="M29.835,3.903c0.157-1.563-2.217-2.266-3.528-0.501c-0.75-1.826-3.938-0.775-3.41,0.799    c-2.152,0.438-1.805,2.75-0.902,3.938c0-1,0.385-1.811,1.782-1.883c0.28,1.008,1.575,1.371,2.491,0.778    c0.502,0.506,2.164,0.792,2.902-0.167C31.618,7.701,31.335,4.466,29.835,3.903z" fill="#08446d"/>
	</g>
</g>
<g>
</g>
<g>
</g>
<g>
</g>
<g>
</g>
<g>
</g>
<g>
</g>
<g>
</g>
<g>
</g>
<g>
</g>
<g>
</g>
<g>
</g>
<g>
</g>
<g>
</g>
<g>
</g>
<g>
</g>
</svg>
