<svg id="Слой_2" data-name="Слой 2" xmlns="http://www.w3.org/2000/svg" viewBox="0 0 485.38 209.8"><defs><style>.cls-1{font-size:72.3px;}.cls-1,.cls-3{fill:#88be2a;}.cls-1,.cls-2{font-family:Arial;font-weight:700;}.cls-2{font-size:70.4px;}.cls-2,.cls-4{fill:#333;}</style></defs><title>logo</title><text class="cls-1" transform="translate(0 120.18) scale(0.96 1)">За<tspan x="85.5" y="0">во</tspan><tspan x="172.2" y="0">д </tspan></text><text class="cls-2" transform="translate(246.6 120.18) scale(1.01 1)">Г<tspan x="38.98" y="0">арант</tspan></text><path class="cls-3" d="M192.7,102.47s-0.55-4.68,0-18C239.38,77.83,277.21,47.27,293,52V42.48c-35.07,0-57.1,29.6-111,34.36v25.63H192.7Z" transform="translate(-65 -42.48)"/><path class="cls-4" d="M393.21,102.47s0.55-4.68,0-18C346.53,77.83,308.7,47.27,293,52V42.48c35.07,0,57.1,29.6,111,34.36v25.63H393.21Z" transform="translate(-65 -42.48)"/><path class="cls-3" d="M217.56,193.88h12.7q26.33,34.11,62.69,49v9.36C263.72,240.19,238,221.72,217.56,193.88Z" transform="translate(-65 -42.48)"/><path class="cls-4" d="M368.35,193.88h-12.7Q329.32,228,293,242.92v9.36C322.19,240.19,347.87,221.72,368.35,193.88Z" transform="translate(-65 -42.48)"/></svg>